<mxfile host="app.diagrams.net" modified="2021-01-22T07:13:45.947Z" agent="5.0 (Macintosh; Intel Mac OS X 10_11_6) AppleWebKit/537.36 (KHTML, like Gecko) Chrome/87.0.4280.141 Safari/537.36" etag="6j1Y2yzZgPUjx_jOJVVw" version="14.2.4" type="github">
  <diagram id="oZKxI4CIkwuGWqE1INa4" name="Page-1">
    <mxGraphModel dx="993" dy="829" grid="1" gridSize="10" guides="1" tooltips="1" connect="1" arrows="1" fold="1" page="1" pageScale="2" pageWidth="827" pageHeight="1169" math="0" shadow="0">
      <root>
        <mxCell id="0" />
        <mxCell id="1" parent="0" />
        <mxCell id="yLul7X9Yzj1YzPeytxiC-2" value="" style="rounded=1;whiteSpace=wrap;html=1;fillColor=#1ba1e2;strokeColor=#006EAF;fontColor=#ffffff;" vertex="1" parent="1">
          <mxGeometry x="440" y="490" width="290" height="430" as="geometry" />
        </mxCell>
        <mxCell id="yLul7X9Yzj1YzPeytxiC-3" value="" style="rounded=1;whiteSpace=wrap;html=1;fillColor=#1ba1e2;strokeColor=#006EAF;fontColor=#ffffff;" vertex="1" parent="1">
          <mxGeometry x="830" y="490" width="200" height="430" as="geometry" />
        </mxCell>
        <mxCell id="yLul7X9Yzj1YzPeytxiC-4" value="&lt;font style=&quot;font-size: 17px&quot;&gt;Task&lt;/font&gt;" style="rounded=1;whiteSpace=wrap;html=1;fillColor=#1ba1e2;strokeColor=#006EAF;fontColor=#ffffff;" vertex="1" parent="1">
          <mxGeometry x="190" y="585" width="140" height="215" as="geometry" />
        </mxCell>
        <mxCell id="yLul7X9Yzj1YzPeytxiC-5" value="&lt;font style=&quot;font-size: 21px&quot;&gt;TaskProcessor&lt;br&gt;process (Task task)&lt;br&gt;&lt;/font&gt;" style="text;html=1;strokeColor=none;fillColor=none;align=center;verticalAlign=middle;whiteSpace=wrap;rounded=0;fontColor=#FFFFFF;" vertex="1" parent="1">
          <mxGeometry x="830" y="670" width="200" height="80" as="geometry" />
        </mxCell>
        <mxCell id="yLul7X9Yzj1YzPeytxiC-6" value="&lt;font style=&quot;font-size: 16px&quot; color=&quot;#ffffff&quot;&gt;Scheduler&lt;/font&gt;" style="rounded=1;whiteSpace=wrap;html=1;strokeColor=#23445d;fillColor=#B3B3B3;" vertex="1" parent="1">
          <mxGeometry x="490" y="640" width="190" height="120" as="geometry" />
        </mxCell>
        <mxCell id="yLul7X9Yzj1YzPeytxiC-7" value="Quartz" style="text;html=1;strokeColor=none;fillColor=none;align=center;verticalAlign=middle;whiteSpace=wrap;rounded=0;fontColor=#FFFFFF;fontSize=18;" vertex="1" parent="1">
          <mxGeometry x="538" y="510" width="90" height="20" as="geometry" />
        </mxCell>
      </root>
    </mxGraphModel>
  </diagram>
</mxfile>
